<svg xmlns="http://www.w3.org/2000/svg" xmlns:xlink="http://www.w3.org/1999/xlink" viewBox="0 0 374 226.62"><defs><style>.cls-1{opacity:0.25;}.cls-2{fill:#38cdf3;}.cls-3{fill:url(#Безымянный_градиент);}.cls-4{opacity:0.5;}.cls-5{fill:#2875b4;}.cls-6{fill:url(#Безымянный_градиент_2);}.cls-7{fill:#787878;}.cls-10,.cls-7,.cls-8,.cls-9{fill-rule:evenodd;}.cls-8{fill:url(#Безымянный_градиент_25);}.cls-9{fill:url(#Безымянный_градиент_25-2);}.cls-10{fill:url(#Безымянный_градиент_25-3);}</style><linearGradient id="Безымянный_градиент" x1="146.46" y1="934.29" x2="259.71" y2="580.14" gradientTransform="matrix(1, 0, 0, -1, 0, 925.59)" gradientUnits="userSpaceOnUse"><stop offset="0" stop-color="#70e4d3"/><stop offset="0.51" stop-color="#5d96dd"/><stop offset="1" stop-color="#38cdf3"/></linearGradient><linearGradient id="Безымянный_градиент_2" x1="185.84" y1="799.96" x2="457.37" y2="496.21" gradientTransform="matrix(1, 0, 0, -1, 0, 925.59)" gradientUnits="userSpaceOnUse"><stop offset="0" stop-color="#2be2fb"/><stop offset="0.5" stop-color="#5e96dc"/><stop offset="1" stop-color="#74f5d2"/></linearGradient><linearGradient id="Безымянный_градиент_25" x1="16.02" y1="895.37" x2="57.73" y2="859.04" gradientTransform="matrix(1, 0, 0, -1, 0, 925.59)" gradientUnits="userSpaceOnUse"><stop offset="0" stop-color="#f7f7f7"/><stop offset="0.49" stop-color="#c4c4c4"/><stop offset="1" stop-color="#545454"/></linearGradient><linearGradient id="Безымянный_градиент_25-2" x1="51.76" y1="874.5" x2="93.38" y2="838.24" xlink:href="#Безымянный_градиент_25"/><linearGradient id="Безымянный_градиент_25-3" x1="87.94" y1="896.68" x2="129.42" y2="860.56" xlink:href="#Безымянный_градиент_25"/></defs><g id="Слой_2" data-name="Слой 2"><g id="Слой_1-2" data-name="Слой 1"><g class="cls-1"><path class="cls-2" d="M374,9.51q-12,1.28-24.45,3.65c-14.84,2.85-29.69,6-44.52,9.13C202.5,43.82,188.77-17.1,130.23,4.85,91.42,19.4,71.14,74.72,37.29,57.9A111,111,0,0,0,0,46.6v180H374Z"/><path class="cls-3" d="M374,9.51q-12,1.28-24.45,3.65c-14.84,2.85-29.69,6-44.52,9.13C202.5,43.82,188.77-17.1,130.23,4.85,91.42,19.4,71.14,74.72,37.29,57.9A111,111,0,0,0,0,46.6v180H374Z"/></g><g class="cls-4"><path class="cls-5" d="M374,94.12a74.11,74.11,0,0,0-20.18-11.25C302.76,65.13,271.1,141.58,223.44,129c-30.4-8.06-74.73-26.85-122.84,14-24.73,21-31.19,48.3-40.17,81.5-.2.75-.42,1.48-.63,2.22H374Z"/><path class="cls-6" d="M374,94.12a74.11,74.11,0,0,0-20.18-11.25C302.76,65.13,271.1,141.58,223.44,129c-30.4-8.06-74.73-26.85-122.84,14-24.73,21-31.19,48.3-40.17,81.5-.2.75-.42,1.48-.63,2.22H374Z"/></g><path class="cls-7" d="M86.16,80.66l.17-.11v.2ZM50.49,59.85l.17-.11v.2Zm71.73-1.48.17-.12v.2Z"/><path class="cls-8" d="M49.24,59.11l.08.06-.08,0Z"/><path class="cls-9" d="M84.9,79.92,85,80l-.09,0Z"/><path class="cls-10" d="M121,57.71v-.08l.08,0Z"/></g></g></svg>