<?xml version="1.0" encoding="utf-8"?>
<svg viewBox="0 0 1440 900" xmlns="http://www.w3.org/2000/svg">
  <defs>
    <clipPath id="clip0">
      <rect width="1440" height="900" fill="white"/>
    </clipPath>
    <linearGradient id="paint0_linear" x1="0" y1="0" x2="1440" y2="900" gradientUnits="userSpaceOnUse">
      <stop stop-color="#70E5D3"/>
      <stop offset="0.2865" stop-color="white"/>
      <stop offset="0.5208" stop-color="#5C97DD"/>
      <stop offset="0.8021" stop-color="white"/>
      <stop offset="1" stop-color="#3ACAF2"/>
    </linearGradient>
    <linearGradient id="paint1_linear" x1="1655.14" y1="-16.8004" x2="1075.71" y2="672.516" gradientUnits="userSpaceOnUse">
      <stop stop-color="#70E4D3"/>
      <stop offset="0.5104" stop-color="#5D96DD"/>
      <stop offset="1" stop-color="#38CDF3"/>
    </linearGradient>
    <linearGradient id="paint2_linear" x1="1450" y1="234.5" x2="1253.46" y2="920.463" gradientUnits="userSpaceOnUse">
      <stop stop-color="#2BE2FB"/>
      <stop offset="0.5" stop-color="#5E96DC"/>
      <stop offset="1" stop-color="#74F5D2"/>
    </linearGradient>
    <linearGradient id="paint24_linear" x1="847.128" y1="534.384" x2="953.51" y2="627.035" gradientUnits="userSpaceOnUse">
      <stop stop-color="#F7F7F7"/>
      <stop offset="0.4902" stop-color="#C4C4C4"/>
      <stop offset="1" stop-color="#545454"/>
    </linearGradient>
    <linearGradient id="paint25_linear" x1="938.811" y1="588.139" x2="1044.97" y2="680.601" gradientUnits="userSpaceOnUse">
      <stop stop-color="#F7F7F7"/>
      <stop offset="0.4902" stop-color="#C4C4C4"/>
      <stop offset="1" stop-color="#545454"/>
    </linearGradient>
    <linearGradient id="paint31_linear" x1="1031.56" y1="531.349" x2="1137.36" y2="623.465" gradientUnits="userSpaceOnUse">
      <stop stop-color="#F7F7F7"/>
      <stop offset="0.4902" stop-color="#C4C4C4"/>
      <stop offset="1" stop-color="#545454"/>
    </linearGradient>
  </defs>
  <rect width="1440" height="900" fill="#E5E5E5" transform="matrix(1, 0, 0, 1, -615.833313, -382.692322)"/>
  <g clip-path="url(#clip0)" transform="matrix(1, 0, 0, 1, -615.833313, -382.692322)">
    <rect width="1440" height="900" fill="white"/>
    <rect width="1440" height="900" fill="url(#paint0_linear)" fill-opacity="0.1"/>
    <g opacity="0.25">
      <path d="M1863.75 420.172C1846.53 399.987 1828.68 380.215 1810.97 360.411C1688.41 223.47 1795.37 116.572 1706.72 51.7863C1647.94 8.83843 1524.98 52.6233 1530.78 -25.7818C1543.71 -199.854 1383.03 -220.249 1273.45 -161.046C1217.57 -130.846 1198.54 -98.7684 1138.19 -41.8355C1045.8 45.2737 952.091 -78.0915 805.954 -105.088C667.39 -130.684 577.843 -44.5582 598.537 54.827C630.937 210.088 831.972 216.834 849.951 361.264C882.062 619.478 985.517 553.436 1159.67 605.471C1310.89 650.696 1327.47 766.388 1428.55 847.329C1506.56 917.226 1593.88 942.856 1694.59 927.539C1952.6 888.271 2023.98 607.846 1863.75 420.172Z" fill="#38CDF3"/>
      <path d="M1863.75 420.172C1846.53 399.987 1828.68 380.215 1810.97 360.411C1688.41 223.47 1795.37 116.572 1706.72 51.7863C1647.94 8.83843 1524.98 52.6233 1530.78 -25.7818C1543.71 -199.854 1383.03 -220.249 1273.45 -161.046C1217.57 -130.846 1198.54 -98.7684 1138.19 -41.8355C1045.8 45.2737 952.091 -78.0915 805.954 -105.088C667.39 -130.684 577.843 -44.5582 598.537 54.827C630.937 210.088 831.972 216.834 849.951 361.264C882.062 619.478 985.517 553.436 1159.67 605.471C1310.89 650.696 1327.47 766.388 1428.55 847.329C1506.56 917.226 1593.88 942.856 1694.59 927.539C1952.6 888.271 2023.98 607.846 1863.75 420.172Z" fill="url(#paint1_linear)"/>
    </g>
    <g opacity="0.5">
      <path d="M2101.64 789.533C1990.88 696.757 1865.52 732.193 1876.74 605.335C1880.07 567.458 1889.56 536.493 1882.07 504.19C1860.67 411.974 1717.83 436.446 1692.04 354.02C1675.6 301.453 1662.06 218.212 1556.68 185.022C1502.51 167.969 1455.99 183.912 1398.41 201.597C1278.22 238.507 1200.67 161.817 1060.75 179.96C941.368 195.452 880.882 276.655 905.292 367.075C933.348 471.085 1027.85 516.763 1132.48 601.629C1224.62 676.371 1179 764.451 1208.22 882.531C1228.37 964.042 1300.51 1012.36 1388.26 1032.37C1502.97 1058.52 1581.77 1035.58 1677.28 1011.13C1782.79 984.111 1851.32 1015.46 1919.43 1034.71C2130 1094.22 2221.04 889.582 2101.64 789.533Z" fill="#2875B4"/>
      <path d="M2101.64 789.533C1990.88 696.757 1865.52 732.193 1876.74 605.335C1880.07 567.458 1889.56 536.493 1882.07 504.19C1860.67 411.974 1717.83 436.446 1692.04 354.02C1675.6 301.453 1662.06 218.212 1556.68 185.022C1502.51 167.969 1455.99 183.912 1398.41 201.597C1278.22 238.507 1200.67 161.817 1060.75 179.96C941.368 195.452 880.882 276.655 905.292 367.075C933.348 471.085 1027.85 516.763 1132.48 601.629C1224.62 676.371 1179 764.451 1208.22 882.531C1228.37 964.042 1300.51 1012.36 1388.26 1032.37C1502.97 1058.52 1581.77 1035.58 1677.28 1011.13C1782.79 984.111 1851.32 1015.46 1919.43 1034.71C2130 1094.22 2221.04 889.582 2101.64 789.533Z" fill="url(#paint2_linear)"/>
    </g>
    <path fill-rule="evenodd" clip-rule="evenodd" d="M970.857 727.544L971.296 727.251V727.763L970.857 727.544ZM879.241 674.083L879.681 673.79V674.303L879.241 674.083ZM1063.5 670.275L1063.94 669.982V670.495L1063.5 670.275Z" fill="#787878"/>
    <path fill-rule="evenodd" clip-rule="evenodd" d="M876.02 672.179L876.24 672.326L876.02 672.399V672.179Z" fill="url(#paint24_linear)"/>
    <path fill-rule="evenodd" clip-rule="evenodd" d="M967.635 725.64L967.855 725.787L967.635 725.86V725.64Z" fill="url(#paint25_linear)"/>
    <path fill-rule="evenodd" clip-rule="evenodd" d="M1060.28 668.591V668.371L1060.5 668.518L1060.28 668.591Z" fill="url(#paint31_linear)"/>
  </g>
</svg>
