<svg width="26" height="25" viewBox="0 0 26 25" fill="none" xmlns="http://www.w3.org/2000/svg">
<path d="M21.8661 9.68184C21.2871 7.4419 19.9494 5.472 18.0809 4.10779C16.2123 2.74358 13.9286 2.06947 11.6187 2.20031C9.30889 2.33115 7.11586 3.25885 5.41333 4.82535C3.7108 6.39185 2.6041 8.50021 2.2818 10.7912C1.9595 13.0822 2.44154 15.4141 3.64579 17.3895C4.85003 19.3649 6.70198 20.8617 8.88607 21.6247C11.0702 22.3878 13.4513 22.3699 15.6237 21.5742C17.7961 20.7785 19.6254 19.2541 20.7999 17.2609L19.2021 16.3194C18.2454 17.943 16.7554 19.1847 14.9858 19.8328C13.2163 20.481 11.2768 20.4955 9.49774 19.874C7.7187 19.2524 6.2102 18.0332 5.22929 16.4242C4.24837 14.8151 3.85573 12.9157 4.11825 11.0496C4.38078 9.18344 5.28224 7.46608 6.66903 6.1901C8.05582 4.91412 9.84214 4.15846 11.7236 4.05188C13.6051 3.9453 15.4653 4.4944 16.9873 5.60561C18.5094 6.71683 19.599 8.3214 20.0706 10.1459L21.8661 9.68184Z" fill="#2DA9C6"/>
<path d="M14.1279 8.02252L20.8234 10.2965L23.0974 3.6011" stroke="#2DA9C6" stroke-width="2"/>
</svg>
