<?xml version="1.0" encoding="utf-8"?><svg width="24" height="24" fill="none" xmlns="http://www.w3.org/2000/svg" viewBox="0 0 24 24"><path d="M3.515 3.515A11.922 11.922 0 0112 0c3.205 0 6.219 1.248 8.485 3.515A11.922 11.922 0 0124 12c0 3.205-1.248 6.219-3.515 8.485A11.921 11.921 0 0112 24a11.922 11.922 0 01-8.485-3.515A11.921 11.921 0 010 12c0-3.205 1.248-6.219 3.515-8.485zM6.81 15.533a1.172 1.172 0 001.657 1.657L12 13.657l3.533 3.533a1.169 1.169 0 001.657 0c.458-.457.458-1.2 0-1.657L13.657 12l3.533-3.533a1.172 1.172 0 00-1.657-1.657L12 10.343 8.467 6.81A1.172 1.172 0 106.81 8.467L10.343 12 6.81 15.533z" fill="#fff" fill-opacity=".3"/></svg>