<?xml version="1.0" encoding="utf-8"?><svg width="40" height="40" fill="none" xmlns="http://www.w3.org/2000/svg" viewBox="0 0 40 40"><path d="M25.71 6.588c.458 0 .838-.008 1.22 0 1.273.036 2.048.811 2.078 2.086.014.6 0 1.2 0 1.875h1.842c.814 0 1.481.3 1.85 1.048.156.331.239.693.242 1.059.029 1.692.029 3.383.02 5.075a.572.572 0 00.376.602C37.69 20.491 40.212 25.331 39.43 30c-.847 5.05-4.602 8.829-9.564 9.436-4.494.553-8.09-1.114-10.754-4.768a.818.818 0 00-.758-.383c-2.927.01-5.855.01-8.783 0-1.522 0-2.308-.79-2.306-2.31V27.56v-.53H2.16c-1.338 0-2.138-.803-2.142-2.152C.006 20.8 0 16.723 0 12.648c0-1.258.8-2.069 2.063-2.095.612-.014 1.236 0 1.894 0v-1.81c0-1.333.806-2.142 2.139-2.15h1.148v-.52-3.93C7.244.834 8.072 0 9.359 0h14.258c1.271 0 2.084.825 2.09 2.108.008 1.284 0 2.561 0 3.841.002.19.002.378.002.64zm5.938 10.991v-.452c0-1.442-.005-2.883-.016-4.324 0-.744-.193-.931-.95-.931H2.262c-.75 0-.938.192-.936.941 0 3.515.005 7.031.016 10.548v1.589c0 .337.111.68.463.706.706.055 1.423.016 2.166.016v-.53c0-1.324-.012-2.648 0-3.971 0-.985.562-1.74 1.452-1.976.286-.067.58-.096.874-.088 5.061 0 10.12 0 15.187-.01.33-.009.654-.101.939-.27 2.191-1.31 4.545-1.901 7.092-1.624.697.083 1.388.244 2.133.376zM24.81 37.533c.026-.121.05-.206.061-.29.216-1.943.419-3.886.65-5.828.043-.353-.063-.539-.37-.731-3.66-2.282-3.628-7.733.045-9.99.406-.249.814-.342 1.249-.11.434.234.588.63.582 1.108 0 .706.011 1.413 0 2.119a.58.58 0 00.302.57c1.033.67 1.025.67 2.056 0a.584.584 0 00.293-.575 48.267 48.267 0 010-2.206c.02-.839.788-1.36 1.533-1.049.174.078.34.174.496.285 3.51 2.367 3.415 7.667-.189 9.888a.617.617 0 00-.328.707c.162 1.314.302 2.63.45 3.945l.244 2.145c3.072-.962 6.71-4.644 6.33-9.878a9.813 9.813 0 00-9.359-9.165c-5.215-.219-9.573 3.426-10.284 8.494-.712 4.957 2.426 9.239 6.239 10.558v.003zM8.564 10.516H24.37c.009-.165.023-.293.023-.424v-7.81c0-.772-.187-.952-.973-.952H9.469c-.707 0-.905.215-.905.932v5.121c.002 1.023.002 2.05.002 3.13l-.002.003zm17.14 11.429c-.223.176-.364.277-.487.392a4.58 4.58 0 00.775 7.324c.68.413.96.927.854 1.713-.16 1.194-.282 2.395-.413 3.592-.11.99-.208 1.983-.31 2.965.047.03.097.055.15.076.099.025.2.044.302.063 1.174.212 2.378.212 3.553 0 .353-.056.462-.166.418-.53-.235-1.97-.404-3.948-.673-5.915-.127-.934.106-1.542.945-2.047a4.554 4.554 0 00.176-7.614v2.094a1.413 1.413 0 01-.665 1.265c-.39.26-.78.53-1.173.784a1.36 1.36 0 01-1.61 0c-.345-.226-.677-.47-1.03-.682a1.57 1.57 0 01-.815-1.543c.03-.61.005-1.22.005-1.941l-.002.004zm-8.55 5.087h-6.28a2.245 2.245 0 01-.44-.018.61.61 0 01-.53-.61.623.623 0 01.53-.668c.146-.024.293-.031.44-.021h6.18c.156 0 .416-.048.451-.14.224-.58.4-1.183.593-1.783H8.616c-.01.134-.023.234-.023.335v7.985c0 .641.235.867.883.87h8.206c.127 0 .254-.018.381-.027-.226-.761-.468-1.482-.644-2.22-.076-.318-.204-.389-.504-.387-2 .01-4 0-6.004 0-.189 0-.43.036-.556-.063a1.169 1.169 0 01-.45-.62c-.057-.313.176-.551.503-.618.16-.025.322-.033.484-.025h6.258l.004-1.99zm-9.89-1.347v-1.558a.408.408 0 00-.273-.464.528.528 0 01-.334-.72c.1-.215.37-.368.592-.497.111-.064.288-.014.434-.014h10.724c.166 0 .403 0 .486-.103.48-.584.925-1.199 1.404-1.833a1.472 1.472 0 00-.22-.037H6.125c-.61 0-.825.232-.827.836v4.061c.007.114.02.228.04.34l1.926-.011zM25.737 7.927v2.59h1.932c0-.692.04-1.366-.025-2.032a.794.794 0 00-.53-.53c-.429-.085-.892-.028-1.377-.028zM7.219 10.544V7.927c-.475 0-.927-.023-1.376 0a.567.567 0 00-.545.592c-.023.586-.02 1.174 0 1.765 0 .09.129.25.203.253.558.016 1.126.007 1.718.007z" fill="#2871B6"/><path d="M11.822 14.507c-.411 0-.822.012-1.236 0a.666.666 0 01-.65-.911.644.644 0 01.633-.4c.85-.02 1.703-.02 2.555 0 .454 0 .726.29.717.671-.009.382-.288.63-.744.641-.425.011-.85 0-1.278 0l.003-.001zM21.091 14.501c-.426 0-.853.011-1.279 0-.425-.01-.683-.273-.687-.648a.635.635 0 01.677-.658 63.987 63.987 0 012.6 0 .626.626 0 01.665.665c-.01.373-.27.622-.706.636-.437.014-.845.005-1.27.005zM16.466 14.494a6.712 6.712 0 01-.706 0 .6.6 0 01-.588-.646.568.568 0 01.544-.632 10.727 10.727 0 011.538 0c.353.028.53.3.519.651a.587.587 0 01-.567.618c-.238.029-.49.01-.74.01zM29.007 34.964c0 .412.014.823 0 1.236-.02.454-.284.722-.669.707-.385-.016-.637-.281-.645-.737-.01-.824-.01-1.648 0-2.472 0-.457.258-.726.645-.731.387-.005.65.252.67.706.013.442 0 .867 0 1.291z" fill="#2871B6"/></svg>