<?xml version="1.0" encoding="utf-8"?><svg width="57" height="57" fill="none" xmlns="http://www.w3.org/2000/svg" viewBox="0 0 57 57"><path d="M48.688 45.124h-19a1.188 1.188 0 000 2.375h19a1.188 1.188 0 000-2.375zM48.688 49.874h-19a1.188 1.188 0 000 2.375h19a1.188 1.188 0 000-2.375zM8.313 45.124a3.567 3.567 0 00-3.563 3.562 3.567 3.567 0 003.563 3.563 3.567 3.567 0 003.562-3.563 3.567 3.567 0 00-3.563-3.562zm0 4.75a1.188 1.188 0 110-2.376 1.188 1.188 0 010 2.376zM8.313 30.874a3.567 3.567 0 00-3.563 3.562A3.567 3.567 0 008.313 38a3.567 3.567 0 003.562-3.563 3.567 3.567 0 00-3.563-3.562zm0 4.75a1.188 1.188 0 110-2.376 1.188 1.188 0 010 2.376zM48.688 21.374h-19a1.188 1.188 0 000 2.375h19a1.188 1.188 0 000-2.375z" fill="#2871B6"/><path d="M57 22.562v-4.75c0-1.14-.34-2.196-.9-3.104-.017-.033-.02-.071-.038-.102L48.718 2.802a5.903 5.903 0 00-5.042-2.8H13.331a5.9 5.9 0 00-5.042 2.8L.945 14.606c-.012.02-.012.04-.023.062A5.89 5.89 0 000 17.812v4.75c0 1.948.957 3.668 2.413 4.75C.957 28.398 0 30.116 0 32.063v4.75c0 1.948.957 3.668 2.413 4.75C.957 42.648 0 44.365 0 46.313v4.75A5.946 5.946 0 005.937 57h45.125A5.946 5.946 0 0057 51.062v-4.75c0-1.947-.957-3.667-2.413-4.75C56.043 40.48 57 38.76 57 36.812v-4.75c0-1.947-.957-3.667-2.413-4.75 1.456-1.082 2.413-2.8 2.413-4.75zM10.305 4.056a3.538 3.538 0 013.023-1.681h30.346c1.24 0 2.37.63 3.023 1.681l4.9 7.874c-.178-.017-.352-.055-.535-.055H5.937c-.182 0-.353.038-.532.055l4.9-7.874zm44.32 42.256v4.75a3.567 3.567 0 01-3.563 3.563H5.938a3.567 3.567 0 01-3.562-3.563v-4.75a3.567 3.567 0 013.562-3.562h45.125a3.567 3.567 0 013.563 3.562zm0-14.25v4.75a3.567 3.567 0 01-3.563 3.563H5.938a3.567 3.567 0 01-3.562-3.563v-4.75A3.567 3.567 0 015.937 28.5h45.125a3.567 3.567 0 013.563 3.562zm0-9.5a3.567 3.567 0 01-3.563 3.563H5.938a3.567 3.567 0 01-3.562-3.563v-4.75a3.567 3.567 0 013.562-3.562h45.125a3.567 3.567 0 013.563 3.562v4.75z" fill="#2871B6"/><path d="M48.688 16.624h-19a1.188 1.188 0 000 2.375h19a1.188 1.188 0 000-2.375zM48.688 35.624h-19a1.188 1.188 0 000 2.375h19a1.188 1.188 0 000-2.375zM48.688 30.874h-19a1.188 1.188 0 000 2.375h19a1.188 1.188 0 000-2.375zM8.313 16.624a3.567 3.567 0 00-3.563 3.562 3.567 3.567 0 003.563 3.563 3.567 3.567 0 003.562-3.563 3.567 3.567 0 00-3.563-3.562zm0 4.75a1.188 1.188 0 110-2.376 1.188 1.188 0 010 2.376z" fill="#2871B6"/></svg>